<svg width="21" height="21" viewBox="0 0 21 21" fill="none" xmlns="http://www.w3.org/2000/svg">
<path d="M18.0999 10.5V20H2.8999V10.5" stroke="#AAAAAA" stroke-width="1.5" stroke-linecap="round" stroke-linejoin="round"/>
<path d="M20 5.75H1V10.5H20V5.75Z" stroke="#AAAAAA" stroke-width="1.5" stroke-linecap="round" stroke-linejoin="round"/>
<path d="M10.5 20V5.75" stroke="#AAAAAA" stroke-width="1.5" stroke-linecap="round" stroke-linejoin="round"/>
<path d="M10.5 5.75H14.775C15.4049 5.75 16.009 5.49978 16.4544 5.05438C16.8998 4.60898 17.15 4.00489 17.15 3.375C17.15 2.74511 16.8998 2.14102 16.4544 1.69562C16.009 1.25022 15.4049 1 14.775 1C11.45 1 10.5 5.75 10.5 5.75Z" stroke="#AAAAAA" stroke-width="1.5" stroke-linecap="round" stroke-linejoin="round"/>
<path d="M10.5001 5.75H6.2251C5.59521 5.75 4.99112 5.49978 4.54572 5.05438C4.10032 4.60898 3.8501 4.00489 3.8501 3.375C3.8501 2.74511 4.10032 2.14102 4.54572 1.69562C4.99112 1.25022 5.59521 1 6.2251 1C9.5501 1 10.5001 5.75 10.5001 5.75Z" stroke="#AAAAAA" stroke-width="1.5" stroke-linecap="round" stroke-linejoin="round"/>
</svg>
