<svg width="36" height="46" viewBox="0 0 36 46" fill="none" xmlns="http://www.w3.org/2000/svg">
<path d="M35.3334 18.8787C35.3334 31.052 22.9878 41.7576 19.1347 44.8025C18.4649 45.3317 17.5352 45.3317 16.8655 44.8025C13.0123 41.7576 0.666748 31.052 0.666748 18.8787C0.666748 13.9601 2.49293 9.24304 5.74356 5.76509C8.99419 2.28714 13.403 0.333252 18.0001 0.333252C22.5972 0.333252 27.006 2.28714 30.2566 5.76509C33.5072 9.24304 35.3334 13.9601 35.3334 18.8787Z" fill="#49DC92"/>
<path d="M18.0001 26.9999C23.1547 26.9999 27.3334 22.8212 27.3334 17.6666C27.3334 12.5119 23.1547 8.33325 18.0001 8.33325C12.8454 8.33325 8.66675 12.5119 8.66675 17.6666C8.66675 22.8212 12.8454 26.9999 18.0001 26.9999Z" fill="white"/>
</svg>
