<svg width="25" height="25" viewBox="0 0 25 25" fill="none" xmlns="http://www.w3.org/2000/svg">
<path d="M13.25 8.4668C13.25 8.05258 12.9142 7.7168 12.5 7.7168C12.0858 7.7168 11.75 8.05258 11.75 8.4668L13.25 8.4668ZM11.75 21.5001C11.75 21.9143 12.0858 22.2501 12.5 22.2501C12.9142 22.2501 13.25 21.9143 13.25 21.5001H11.75ZM11.75 8.4668V21.5001H13.25V8.4668L11.75 8.4668Z" fill="#AAAAAA"/>
<path d="M22.7005 7.88487C18.395 1.89697 14.7118 5.06349 12.9726 8.15394C12.6495 8.72794 12.6959 9.44139 13.0937 9.96632C16.2262 14.0994 20.1745 12.2478 22.4997 10.1292C23.1363 9.54924 23.2033 8.58405 22.7005 7.88487Z" stroke="#AAAAAA" stroke-width="1.5" stroke-linecap="round" stroke-linejoin="round"/>
<path d="M12.5 9.03321C15.25 7.89998 16.9 8.46662 18 9.03321" stroke="#AAAAAA" stroke-width="1.5" stroke-linecap="round" stroke-linejoin="round"/>
<path d="M2.29946 7.88487C6.60502 1.89697 10.2882 5.06349 12.0274 8.15394C12.3505 8.72794 12.3041 9.44139 11.9063 9.96632C8.7738 14.0994 4.82551 12.2478 2.50031 10.1292C1.86374 9.54924 1.79672 8.58405 2.29946 7.88487Z" stroke="#AAAAAA" stroke-width="1.5" stroke-linecap="round" stroke-linejoin="round"/>
<path d="M12.5 9.03321C9.75 7.89998 8.1 8.46662 7 9.03321" stroke="#AAAAAA" stroke-width="1.5" stroke-linecap="round" stroke-linejoin="round"/>
</svg>
